HIERARCHY
ROOT pelvis
{
  OFFSET 0 100 0
  CHANNELS 6 Xposition Yposition Zposition Zrotation Xrotation Yrotation
  JOINT pelvis_right_femur
  {
    OFFSET -10.78128 -3.44521 -0.5502486
    CHANNELS 3 Zrotation Xrotation Yrotation
    JOINT right_femur_tibia
    {
      OFFSET -0.8047443 -44.0398 -0.1307829
      CHANNELS 3 Zrotation Xrotation Yrotation
      JOINT right_tibia_foot
      {
        OFFSET 3.006224 -47.83518 -5
        CHANNELS 3 Zrotation Xrotation Yrotation
        End Site
        {
          OFFSET 0 -5 15
        }
      }
    }
  }
  JOINT pelvis_left_femur
  {
    OFFSET 10.78128 -3.44521 -0.5502486
    CHANNELS 3 Zrotation Xrotation Yrotation
    JOINT left_femur_tibia
    {
      OFFSET 0.8047443 -44.0398 -0.1307829
      CHANNELS 3 Zrotation Xrotation Yrotation
      JOINT left_tibia_foot
      {
        OFFSET -4.370144 -48.10324 -4.275266
        CHANNELS 3 Zrotation Xrotation Yrotation
        End Site
        {
          OFFSET 0 -5 15
        }
      }
    }
  }
  JOINT pelvis_spine1
  {
    OFFSET 0 6.468898 -3.129235
    CHANNELS 3 Zrotation Xrotation Yrotation
    JOINT spine1
    {
      OFFSET 0 23.15396 4.99043
      CHANNELS 3 Zrotation Xrotation Yrotation
      JOINT spine2
      {
        OFFSET 0 20.79997 -5.064912
        CHANNELS 3 Zrotation Xrotation Yrotation
        JOINT neck
        {
          OFFSET 0 14.38658 9.616178
          CHANNELS 3 Zrotation Xrotation Yrotation
          End Site
          {
            OFFSET 0 20 0
          }
        }
      }
      JOINT right_manubrium
      {
        OFFSET -5.722621 16.35077 3.967754
        CHANNELS 3 Zrotation Xrotation Yrotation
        JOINT right_clavicle
        {
          OFFSET -13.16364 1.694482 -4.693211
          CHANNELS 3 Zrotation Xrotation Yrotation
          JOINT right_humerus
          {
            OFFSET -28.5034 -0.3100689 -2.792744
            CHANNELS 3 Zrotation Xrotation Yrotation
            JOINT right_radius
            {
              OFFSET -25.15693 0.02248979 -1.271978
              CHANNELS 3 Zrotation Xrotation Yrotation
              End Site
              {
                OFFSET -15 0 0
              }
            }
          }
        }
      }
      JOINT left_manubrium
      {
        OFFSET 5.722621 16.35077 3.967754
        CHANNELS 3 Zrotation Xrotation Yrotation
        JOINT left_clavicle
        {
          OFFSET 13.16364 1.694482 -4.693211
          CHANNELS 3 Zrotation Xrotation Yrotation
          JOINT left_humerus
          {
            OFFSET 29.39168 -1.063119 -2.237045
            CHANNELS 3 Zrotation Xrotation Yrotation
            JOINT left_radius
            {
              OFFSET 24.59957 -0.9528479 0.9047498
              CHANNELS 3 Zrotation Xrotation Yrotation
              End Site
              {
                OFFSET 15 -0 -0
              }
            }
          }
        }
      }
    }
  }
}
MOTION
Frames: 17
Frame Time: 0.0416666666667
-1828.131 94.66217 2436.384 -21.83919 4.979848 -107.1596 2.080643 11.30203 9.62304 -0 36.95376 -0 8.267619 -17.57088 -12.60601 -1.179016 -4.844429 -5.867432 -0 36.73761 -0 -9.8884 -10.18565 23.70653 -0.8858872 -0.3986501 3.598654 3.970961 10.16677 -8.016903 1.106414 21.63992 5.669043 2.975919 -25.72431 7.390664 5.450165 -17.34812 11.48165 88.37403 33.44957 -23.46311 -0 0 9.63345 -9.446919 10.30915 6.041542 3.860567 -20.2306 -4.34471 -92.39347 28.91627 20.42482 0 0 -20.18839 2.272417 12.39717 11.77921
-1835.839 94.67793 2434.473 -21.28795 5.154875 -107.958 2.026797 12.33919 9.43117 -0 37.48562 -0 8.390194 -17.92423 -11.81287 -1.151766 -6.545695 -5.992961 -0 35.62798 -0 -10.12049 -10.24102 23.2464 -0.8952465 -0.3985795 3.587868 3.979551 10.14846 -8.011958 1.103807 21.66484 5.667769 2.982806 -25.77793 7.396459 5.446253 -17.37745 11.47635 88.37185 33.42522 -23.47799 -0 0 9.676726 -9.417152 10.27059 6.017978 3.847374 -20.20347 -4.353179 -92.50875 29.05385 20.53496 0 0 -20.10181 2.181144 12.4545 11.86882
-1843.536 94.68608 2432.555 -20.74791 5.223315 -108.6677 1.867992 13.07254 9.143989 -0 38.30662 -0 8.541859 -18.14169 -11.12103 -1.276112 -7.686004 -6.215352 -0 34.46404 -0 -10.36048 -10.36389 22.69502 -0.9145886 -0.4008384 3.561666 3.998409 10.12353 -8.016913 1.102519 21.68597 5.668561 2.980247 -25.82776 7.410167 5.451536 -17.39181 11.47235 88.37653 33.44729 -23.48747 -0 0 9.679445 -9.361438 10.22977 6.002549 3.81948 -20.17387 -4.369063 -92.56522 29.16157 20.59077 0 0 -20.06929 2.116907 12.50373 11.94048
-1851.215 94.71819 2430.619 -20.26382 5.191715 -109.2566 1.618106 13.44753 8.781375 -0 39.39487 -0 8.700758 -18.19018 -10.58701 -1.552651 -8.19197 -6.525813 -0 33.36217 -0 -10.59283 -10.5555 22.11608 -0.9418102 -0.4048685 3.523089 4.025452 10.09443 -8.030689 1.102649 21.70185 5.670934 2.96852 -25.86899 7.429951 5.465173 -17.3906 11.47009 88.38675 33.51201 -23.48989 -0 0 9.643152 -9.286006 10.1903 5.99681 3.779297 -20.14401 -4.390959 -92.55961 29.23133 20.58939 0 0 -20.0916 2.083309 12.54066 11.98984
-1858.858 94.79883 2428.654 -19.84644 5.067401 -109.7023 1.295237 13.42058 8.375588 -0 40.63986 -0 8.853669 -18.06091 -10.24503 -1.953075 -8.074782 -6.888014 -0 32.35535 -0 -10.79642 -10.81293 21.5598 -0.973392 -0.4097237 3.477186 4.057198 10.06443 -8.05092 1.10406 21.71129 5.674488 2.949454 -25.89766 7.453119 5.484803 -17.37531 11.46982 88.40042 33.60896 -23.48471 -0 0 9.575015 -9.200572 10.15613 6.001124 3.731782 -20.11688 -4.416263 -92.49657 29.25867 20.53502 0 0 -20.16319 2.080994 12.56213 12.0141
-1866.443 94.93619 2426.657 -19.4838 4.861666 -109.9949 0.92257 12.96839 7.967945 -0 41.86649 -0 8.99543 -17.76899 -10.10678 -2.425117 -7.414043 -7.246347 -0 31.41944 -0 -10.94327 -11.12353 21.05758 -1.005278 -0.4144347 3.429728 4.089649 10.03687 -8.074677 1.106444 21.71362 5.67894 2.925882 -25.91137 7.476765 5.507328 -17.34884 11.47155 88.41538 33.72405 -23.47273 -0 0 9.485511 -9.115941 10.13079 6.014595 3.683149 -20.09552 -4.441817 -92.387 29.24327 20.43725 0 0 -20.27368 2.107933 12.56657 12.01224
-1873.95 95.1185 2424.626 -19.16124 4.594264 -110.1366 0.5282991 12.10168 7.598221 -0 42.88156 -0 9.124157 -17.35046 -10.16401 -2.90738 -6.328004 -7.544891 -0 30.51869 -0 -11.00719 -11.46641 20.62344 -1.033935 -0.4183213 3.385757 4.119312 10.01444 -8.099262 1.109425 21.70877 5.684108 2.900804 -25.90965 7.498458 5.529856 -17.31463 11.47505 88.42999 33.84343 -23.45585 -0 0 9.385452 -9.041285 10.11661 6.035378 3.639131 -20.08227 -4.464759 -92.24481 29.18863 20.30833 0 0 -20.41047 2.160059 12.55425 11.98531
-1881.372 95.31749 2422.562 -18.87642 4.293745 -110.1418 0.1424331 10.87502 7.293296 -0 43.5224 -0 9.237094 -16.8577 -10.39244 -3.346177 -4.943153 -7.745768 -0 29.6416 -0 -10.97697 -11.81875 20.25995 -1.057097 -0.4211132 3.348592 4.143903 9.998633 -8.122731 1.112659 21.69731 5.689854 2.876665 -25.89384 7.516683 5.550348 -17.27589 11.47989 88.44334 33.95653 -23.43639 -0 0 9.283687 -8.982297 10.11428 6.061179 3.603654 -20.07818 -4.48315 -92.08373 29.10116 20.16039 0 0 -20.56137 2.232157 12.52706 11.93615
-1888.715 95.49673 2420.466 -18.6418 3.992171 -110.034 -0.2086986 9.384469 7.063253 -0 43.68984 -0 9.33055 -16.35038 -10.75743 -3.70619 -3.373947 -7.836626 -0 28.81283 -0 -10.86312 -12.16082 19.96541 -1.073918 -0.4228807 3.319658 4.162477 9.989708 -8.143985 1.115895 21.68036 5.696051 2.855035 -25.86655 7.530903 5.567758 -17.23523 11.48562 88.45518 34.05716 -23.4164 -0 0 9.186219 -8.940866 10.12289 6.089735 3.578448 -20.08297 -4.496156 -91.91534 28.9889 20.00384 0 0 -20.71635 2.318724 12.48806 11.86893
-1895.996 95.62116 2418.335 -18.47827 3.718354 -109.8438 -0.506595 7.753245 6.906348 -0 43.36032 -0 9.402442 -15.88312 -11.22122 -3.972021 -1.715182 -7.826196 -0 28.08645 -0 -10.69311 -12.47648 19.73962 -1.084607 -0.4238789 3.298982 4.175088 9.987085 -8.162557 1.118975 21.65933 5.70255 2.836693 -25.831 7.541279 5.581799 -17.19469 11.49175 88.46557 34.14279 -23.39741 -0 0 9.096606 -8.916093 10.14051 6.119072 3.563506 -20.09543 -4.503797 -91.74854 28.86021 19.8469 0 0 -20.86787 2.414547 12.44079 11.78835
-1903.242 95.66491 2416.164 -18.4075 3.494282 -109.6048 -0.7406744 6.11281 6.817451 -0 42.5821 -0 9.45373 -15.49493 -11.74952 -4.143156 -0.04320384 -7.734405 -0 27.53228 -0 -10.49966 -12.7502 19.58766 -1.089859 -0.4244036 3.285955 4.182252 9.989823 -8.178279 1.12181 21.63568 5.709155 2.821931 -25.79035 7.54825 5.59257 -17.15588 11.49786 88.47465 34.21284 -23.38039 -0 0 9.016999 -8.905829 10.16484 6.147568 3.557913 -20.11391 -4.50653 -91.59017 28.72297 19.69614 0 0 -21.01014 2.514877 12.38873 11.69918
-1910.486 95.61623 2413.942 -18.44724 3.335807 -109.3513 -0.9049635 4.586969 6.794406 -0 41.46249 -0 9.487051 -15.20497 -12.31505 -4.226823 1.578723 -7.583694 -0 27.22344 -0 -10.30978 -12.96406 19.52117 -1.090374 -0.4247037 3.279967 4.184502 9.997034 -8.190997 1.12434 21.61082 5.715591 2.810856 -25.74735 7.552191 5.600249 -17.12023 11.50363 88.48246 34.26715 -23.36596 -0 0 8.949155 -8.907958 10.19371 6.173881 3.560546 -20.13678 -4.504892 -91.44602 28.58433 19.55726 0 0 -21.13809 2.615274 12.335 11.60598
-1917.756 95.47951 2411.657 -18.60904 3.255519 -109.1159 -0.9940903 3.28208 6.840179 -0 40.14981 -0 9.503619 -15.01462 -12.89727 -4.232041 3.093791 -7.394329 -0 27.22666 -0 -10.13899 -13.0969 19.55723 -1.086628 -0.4249443 3.280716 4.182167 10.00805 -8.200415 1.126511 21.58605 5.721477 2.803582 -25.70422 7.553227 5.604925 -17.08911 11.50874 88.48883 34.30504 -23.35452 -0 0 8.895094 -8.921047 10.22531 6.196843 3.570432 -20.1625 -4.499328 -91.3217 28.45092 19.43589 0 0 -21.24648 2.71125 12.28237 11.51334
-1925.081 95.2748 2409.295 -18.89678 3.265288 -108.9281 -1.000985 2.282429 6.961221 -0 38.81153 -0 9.50045 -14.91345 -13.4791 -4.166219 4.445063 -7.183196 -0 27.59361 -0 -9.990963 -13.12674 19.71504 -1.078845 -0.4251957 3.288239 4.175353 10.02243 -8.206053 1.128259 21.56265 5.726317 2.800281 -25.66283 7.551206 5.606562 -17.06399 11.51296 88.49338 34.32502 -23.34639 -0 0 8.857321 -8.944396 10.25811 6.215372 3.586775 -20.1896 -4.49019 -91.2231 28.3293 19.33802 0 0 -21.32953 2.797949 12.23341 11.42609
-1932.478 95.03487 2406.846 -19.30438 3.376835 -108.8149 -0.9173895 1.648372 7.16328 -0 37.609 -0 9.469552 -14.88616 -14.04225 -4.034374 5.569838 -6.964373 -0 28.35133 -0 -9.861154 -13.03596 20.01044 -1.06711 -0.4254295 3.302734 4.164062 10.0398 -8.207305 1.129511 21.54198 5.729529 2.801152 -25.62488 7.545794 5.605022 -17.04642 11.51606 88.49559 34.3251 -23.34182 -0 0 8.838682 -8.977722 10.29067 6.228456 3.608815 -20.21659 -4.47783 -91.15643 28.22621 19.26996 0 0 -21.38109 2.870009 12.19064 11.34954
-1939.951 94.79974 2404.302 -19.81277 3.599858 -108.7997 -0.7370314 1.415308 7.446134 -0 36.67076 -0 9.399913 -14.91859 -14.56262 -3.840345 6.396382 -6.749916 -0 29.49093 -0 -9.742151 -12.818 20.44896 -1.051523 -0.425516 3.324307 4.148354 10.05969 -8.20355 1.130186 21.52541 5.730514 2.806342 -25.59202 7.53663 5.600128 -17.03793 11.51785 88.49482 34.30321 -23.34094 -0 0 8.841972 -9.020704 10.32149 6.235193 3.635655 -20.2419 -4.462715 -91.12768 28.14856 19.23791 0 0 -21.39535 2.921767 12.15659 11.28933
-1947.493 94.60916 2401.661 -20.38703 3.938097 -108.9023 -0.4603728 1.592613 7.798982 -0 36.06864 -0 9.282137 -15.00189 -15.00761 -3.589054 6.845183 -6.549934 -0 30.95614 -0 -9.629163 -12.48344 21.01847 -1.032355 -0.4252317 3.352701 4.128518 10.08142 -8.194309 1.130205 21.5143 5.728784 2.815882 -25.56597 7.523518 5.59172 -17.03984 11.51819 88.49048 34.25789 -23.34377 -0 0 8.86937 -9.072555 10.34897 6.234899 3.666167 -20.26389 -4.4455 -91.1418 28.10292 19.24705 0 0 -21.36785 2.947841 12.13366 11.25099
